PathFileType	4	(x/y/z)	S06_M20_T18
DataRate	CameraRate	NumFrames	NumMarkers	Units	OrigDataRate	OrigDataStartFrame	OrigNumFrames
240	240	8	51	mm	240	241	481
Frame#	Time	Sternum			R.Acromium			L.Acromium			Top.Head			R.ASIS			L.ASIS			R.PSIS			L.PSIS			R.Great.Tro			L.Great.Tro			R.Iliac.Crest			L.Iliac.Crest			V.Sacral			R.Thigh.Upper.Post			R.Thigh.Lower.Ant			R.Thigh.Lower.Post			R.Thigh.Upper.Ant			R.Knee.Lat			R.Knee.Med			R.Shank.Upper.Post			R.Shank.Lower.Ant			R.Shank.Lower.Post			R.Shank.Upper.Ant			R.Ankle.Lat			R.Ankle.Med			R.Heel.Upper			R.Heel.Med			R.Heel.Lat			R.Toe.Lat			R.Toe.Med			R.Toe.Tip			L.Thigh.Upper.Post			L.Thigh.Lower.Ant			L.Thigh.Lower.Post			L.Thigh.Upper.Ant			L.Knee.Lat			L.Knee.Med			L.Shank.Upper.Post			L.Shank.Lower.Ant			L.Shank.Lower.Post			L.Shank.Upper.Ant			L.Ankle.Lat			L.Ankle.Med			L.Heel.Upper			L.Heel.Med			L.Heel.Lat			L.Toe.Lat			L.Toe.Med			L.Toe.Tip			Cervical.Spine			Back			
		X1	Y1	Z1	X2	Y2	Z2	X3	Y3	Z3	X4	Y4	Z4	X5	Y5	Z5	X6	Y6	Z6	X7	Y7	Z7	X8	Y8	Z8	X9	Y9	Z9	X10	Y10	Z10	X11	Y11	Z11	X12	Y12	Z12	X13	Y13	Z13	X14	Y14	Z14	X15	Y15	Z15	X16	Y16	Z16	X17	Y17	Z17	X18	Y18	Z18	X19	Y19	Z19	X20	Y20	Z20	X21	Y21	Z21	X22	Y22	Z22	X23	Y23	Z23	X24	Y24	Z24	X25	Y25	Z25	X26	Y26	Z26	X27	Y27	Z27	X28	Y28	Z28	X29	Y29	Z29	X30	Y30	Z30	X31	Y31	Z31	X32	Y32	Z32	X33	Y33	Z33	X34	Y34	Z34	X35	Y35	Z35	X36	Y36	Z36	X37	Y37	Z37	X38	Y38	Z38	X39	Y39	Z39	X40	Y40	Z40	X41	Y41	Z41	X42	Y42	Z42	X43	Y43	Z43	X44	Y44	Z44	X45	Y45	Z45	X46	Y46	Z46	X47	Y47	Z47	X48	Y48	Z48	X49	Y49	Z49	X50	Y50	Z50	X51	Y51	Z51	

241	1	-269.41	1298.3	307.18	-393.61	1502.6	478.58	-420.05	1500.5	128.27	-339.29	1815	294.54	-304.38	1066.8	442.19	-293.95	1057.7	188.17	NaN	NaN	NaN	-499.26	1075.2	261.43	-365.33	989.67	488.87	-378.88	977.03	134.61	-392.36	1135.5	469.87	-369.52	1124.5	147.11	-513.11	1041	306.92	-364.43	736.89	462.95	-311.08	656.97	424.33	-379.27	651.74	439.69	-293.29	743.75	445.85	-364.86	539.45	417.53	-360.96	552.18	290.03	-442.83	317.76	400.66	-392.63	247.49	374.46	-458.89	244.03	380.05	-378.32	320.28	394.07	-450.46	113.24	345.43	-435.2	122.92	261.82	-519.41	79.382	294.18	-513.32	47.343	264.14	-513.82	48.299	329.51	-337.76	37.343	374.54	-309.62	40.96	253.06	-243.94	49.085	300.42	-226.43	745.8	152.87	-163.43	681.64	217.24	-217.82	655.41	165.58	-180.28	774.37	200.94	-224.88	564.97	179.96	-205.24	561.7	301.06	-353.11	381.96	170.55	-319.11	300.82	159.18	-385.81	316.41	179.49	-290.2	365.79	156.33	-399.55	171.23	158.88	-377.93	171.54	246.83	-484.47	146.13	206.82	-486.98	111.81	231.85	-486.38	127.97	171.62	-319.92	78.668	115.64	-297.1	52.286	228.95	-225.93	59.844	173.39	-457.78	1552.8	306	-508.23	1277	309.06
242	1.0042	-264.35	1298.2	307.04	-388.24	1502.5	478.44	-414.96	1500.5	128.16	-334.02	1814.9	294.31	-299.52	1066.7	442.24	-288.9	1057.7	188.2	NaN	NaN	NaN	-494.32	1075.2	261.34	-360.69	989.67	488.82	-373.58	977.01	134.59	-387.51	1135.5	469.79	-364.5	1124.5	147.08	-508.15	1041	306.8	-361.45	737.02	462.75	-308.67	656.81	424.19	-376.8	651.92	439.59	-290.25	743.42	445.67	-363.39	539.44	417.49	-359.42	552.16	289.96	-442.13	317.98	400.59	-392.26	247.59	374.33	-458.38	244.32	380.01	-377.63	320.35	394.03	-450.29	113.42	345.36	-434.93	123.08	261.77	-519.36	79.53	294.11	-513.17	47.446	264.14	-513.77	48.463	329.46	-337.74	37.296	374.5	-309.59	40.981	253.06	-243.88	48.99	300.47	-219.85	746.67	153.45	-156.53	683	217.97	-210.69	656.35	166.27	-173.95	775.57	201.58	-216.61	565.86	180.52	-197.53	562.9	301.73	-341.38	380.53	169.88	-305.84	299.94	159.35	-373.03	314.4	178.72	-278.04	365.41	156.62	-384.07	168.98	158.45	-363.29	169.83	246.59	-469.02	142.34	205.53	-471.12	108.02	230.61	-470.2	124.01	170.37	-302.26	77.808	116.27	-280.05	52.146	229.94	-208.53	60.943	175.08	-452.49	1552.9	305.91	-503.2	1277.1	309.01
243	1.0083	-259.3	1298.1	306.91	-382.87	1502.4	478.3	-409.87	1500.4	128.05	-328.75	1814.9	294.1	-294.64	1066.5	442.27	-283.85	1057.7	188.22	NaN	NaN	NaN	-489.39	1075.1	261.25	-356.04	989.65	488.76	-368.3	976.97	134.57	-382.63	1135.5	469.7	-359.5	1124.4	147.04	-503.2	1040.9	306.69	-358.49	737.13	462.55	-306.29	656.64	424.04	-374.37	652.1	439.49	-287.24	743.09	445.48	-361.95	539.42	417.45	-357.91	552.13	289.88	-441.43	318.22	400.51	-391.89	247.71	374.2	-457.89	244.61	379.96	-376.96	320.43	393.98	-450.11	113.6	345.29	-434.65	123.23	261.72	-519.31	79.682	294.03	-513	47.55	264.14	-513.72	48.628	329.42	-337.71	37.246	374.46	-309.57	40.987	253.06	-243.83	48.898	300.52	-213.35	747.5	154.03	-149.72	684.3	218.68	-203.65	657.24	166.95	-167.69	776.73	202.18	-208.43	566.72	181.07	-189.91	564.07	302.39	-329.65	379.08	169.22	-292.56	299.08	159.58	-360.23	312.41	177.97	-265.89	365.05	156.94	-368.55	166.78	158.11	-348.64	168.17	246.44	-453.5	138.62	204.33	-455.18	104.31	229.47	-453.95	120.13	169.22	-284.59	77.031	117.03	-263.02	52.104	231.06	-191.18	62.123	176.9	-447.21	1552.8	305.81	-498.18	1277.1	308.95
244	1.0125	-254.24	1298	306.76	-377.5	1502.3	478.16	-404.77	1500.4	127.93	-323.47	1814.8	293.89	-289.76	1066.4	442.29	-278.82	1057.6	188.22	NaN	NaN	NaN	-484.45	1075.1	261.17	-351.35	989.61	488.7	-363.03	976.91	134.54	-377.73	1135.5	469.6	-354.5	1124.3	147	-498.25	1040.9	306.58	-355.54	737.23	462.34	-303.93	656.47	423.87	-371.95	652.28	439.39	-284.25	742.76	445.28	-360.53	539.41	417.4	-356.45	552.12	289.81	-440.76	318.45	400.42	-391.52	247.83	374.08	-457.4	244.91	379.9	-376.3	320.52	393.94	-449.94	113.78	345.22	-434.37	123.38	261.66	-519.26	79.837	293.95	-512.81	47.657	264.15	-513.66	48.795	329.37	-337.69	37.192	374.41	-309.56	40.977	253.05	-243.78	48.81	300.57	-206.94	748.28	154.6	-143	685.55	219.36	-196.71	658.1	167.62	-161.49	777.84	202.77	-200.33	567.55	181.61	-182.37	565.21	303.04	-317.92	377.64	168.59	-279.28	298.26	159.86	-347.41	310.43	177.26	-253.76	364.7	157.3	-352.99	164.65	157.86	-333.98	166.59	246.37	-437.92	134.99	203.21	-439.19	100.7	228.42	-437.63	116.35	168.17	-266.93	76.342	117.92	-246.03	52.162	232.32	-173.88	63.386	178.85	-441.92	1552.8	305.71	-493.16	1277.1	308.89
245	1.0167	-249.18	1297.9	306.62	-372.13	1502.2	478.01	-399.66	1500.3	127.81	-318.18	1814.6	293.69	-284.87	1066.2	442.3	-273.79	1057.6	188.21	NaN	NaN	NaN	-479.52	1075	261.1	-346.65	989.56	488.63	-357.78	976.83	134.49	-372.8	1135.4	469.5	-349.51	1124.2	146.95	-493.3	1040.8	306.47	-352.61	737.32	462.13	-301.6	656.29	423.69	-369.55	652.44	439.27	-281.28	742.41	445.06	-359.13	539.4	417.34	-355.01	552.1	289.73	-440.1	318.69	400.32	-391.15	247.96	373.97	-456.92	245.2	379.83	-375.66	320.62	393.89	-449.77	113.96	345.14	-434.08	123.53	261.6	-519.21	79.997	293.86	-512.6	47.769	264.16	-513.61	48.965	329.31	-337.67	37.135	374.36	-309.56	40.948	253.05	-243.72	48.724	300.62	-200.61	749.02	155.16	-136.35	686.75	220.02	-189.87	658.9	168.28	-155.35	778.89	203.32	-192.32	568.34	182.14	-174.91	566.32	303.67	-306.2	376.2	167.98	-266.02	297.47	160.2	-334.58	308.48	176.59	-241.66	364.38	157.7	-337.4	162.6	157.7	-319.3	165.07	246.39	-422.28	131.44	202.18	-423.12	97.179	227.48	-421.24	112.66	167.23	-249.29	75.743	118.93	-229.07	52.32	233.68	-156.64	64.735	180.92	-436.63	1552.7	305.61	-488.14	1277.1	308.83
246	1.0208	-244.12	1297.7	306.47	-366.76	1502.1	477.86	-394.55	1500.1	127.69	-312.88	1814.5	293.49	-279.97	1065.9	442.28	-268.76	1057.5	188.18	NaN	NaN	NaN	-474.58	1075	261.02	-341.92	989.48	488.56	-352.53	976.72	134.44	-367.86	1135.3	469.4	-344.52	1124.1	146.9	-488.34	1040.7	306.38	-349.7	737.4	461.92	-299.29	656.09	423.51	-367.17	652.6	439.15	-278.33	742.05	444.83	-357.75	539.4	417.27	-353.6	552.1	289.64	-439.45	318.93	400.21	-390.77	248.1	373.86	-456.45	245.5	379.76	-375.02	320.72	393.84	-449.6	114.15	345.05	-433.79	123.68	261.53	-519.17	80.162	293.77	-512.38	47.886	264.18	-513.55	49.141	329.25	-337.65	37.077	374.3	-309.57	40.903	253.04	-243.67	48.641	300.67	-194.36	749.71	155.69	-129.8	687.88	220.65	-183.12	659.66	168.93	-149.27	779.88	203.85	-184.41	569.09	182.64	-167.54	567.38	304.28	-294.5	374.76	167.41	-252.78	296.72	160.59	-321.75	306.54	175.96	-229.6	364.08	158.12	-321.78	160.61	157.62	-304.63	163.62	246.49	-406.58	127.98	201.26	-407	93.749	226.65	-404.81	109.07	166.4	-231.67	75.239	120.06	-212.15	52.581	235.17	-139.47	66.172	183.09	-431.33	1552.7	305.51	-483.11	1277.1	308.76
247	1.025	-239.05	1297.5	306.32	-361.39	1501.9	477.71	-389.42	1500	127.57	-307.58	1814.3	293.3	-275.07	1065.7	442.26	-263.74	1057.4	188.13	NaN	NaN	NaN	-469.63	1074.9	260.95	-337.17	989.37	488.48	-347.29	976.6	134.38	-362.89	1135.2	469.29	-339.54	1123.9	146.84	-483.39	1040.5	306.28	-346.8	737.46	461.71	-297	655.88	423.31	-364.8	652.75	439.03	-275.4	741.69	444.6	-356.4	539.39	417.2	-352.22	552.09	289.55	-438.81	319.18	400.1	-390.39	248.24	373.76	-455.98	245.81	379.67	-374.38	320.83	393.78	-449.43	114.33	344.96	-433.51	123.82	261.46	-519.12	80.331	293.66	-512.16	48.008	264.18	-513.5	49.322	329.18	-337.63	37.018	374.24	-309.58	40.845	253.03	-243.61	48.561	300.72	-188.18	750.34	156.21	-123.32	688.95	221.25	-176.47	660.37	169.55	-143.25	780.81	204.35	-176.59	569.79	183.13	-160.25	568.41	304.86	-282.82	373.33	166.9	-239.57	296.02	161.03	-308.92	304.64	175.4	-217.6	363.81	158.57	-306.13	158.69	157.64	-289.95	162.24	246.67	-390.83	124.6	200.45	-390.82	90.411	225.94	-388.32	105.58	165.68	-214.08	74.833	121.3	-195.27	52.946	236.75	-122.37	67.701	185.35	-426.03	1552.5	305.41	-478.09	1277	308.69
248	1.0292	-233.97	1297.2	306.16	-356.02	1501.7	477.56	-384.29	1499.8	127.44	-302.27	1814.1	293.12	-270.15	1065.4	442.22	-258.73	1057.2	188.08	NaN	NaN	NaN	-464.68	1074.7	260.88	-332.41	989.24	488.4	-342.06	976.46	134.3	-357.9	1135	469.18	-334.56	1123.8	146.78	-478.42	1040.4	306.19	-343.91	737.5	461.5	-294.72	655.65	423.11	-362.46	652.9	438.9	-272.48	741.31	444.36	-355.06	539.39	417.11	-350.86	552.09	289.46	-438.18	319.44	399.97	-389.99	248.38	373.66	-455.52	246.11	379.57	-373.75	320.94	393.72	-449.26	114.52	344.87	-433.23	123.97	261.38	-519.06	80.507	293.55	-511.93	48.138	264.18	-513.44	49.51	329.11	-337.62	36.961	374.18	-309.6	40.774	253.02	-243.55	48.484	300.77	-182.09	750.93	156.71	-116.93	689.96	221.82	-169.91	661.03	170.16	-137.3	781.68	204.81	-168.88	570.45	183.6	-153.05	569.39	305.43	-271.18	371.9	166.44	-226.42	295.36	161.52	-296.11	302.76	174.92	-205.67	363.56	159.05	-290.46	156.85	157.76	-275.27	160.93	246.94	-375.03	121.3	199.75	-374.59	87.167	225.34	-371.79	102.18	165.08	-196.52	74.526	122.64	-178.45	53.419	238.44	-105.35	69.326	187.71	-420.73	1552.4	305.3	-473.07	1276.9	308.61
